<?xml version="1.0" encoding="iso-8859-1"?>
<!-- Generator: Adobe Illustrator 19.0.0, SVG Export Plug-In . SVG Version: 6.00 Build 0)  -->
<svg version="1.1" id="Capa_1" xmlns="http://www.w3.org/2000/svg" xmlns:xlink="http://www.w3.org/1999/xlink" x="0px" y="0px"
	 viewBox="0 0 511.999 511.999" style="enable-background:new 0 0 511.999 511.999;" xml:space="preserve">
<g>
	<path style="fill:#1F894A;" d="M264.533,307.237c-1.715,0-3.439-0.512-4.941-1.579c-3.84-2.731-4.736-8.055-2.014-11.895
		c2.782-3.917,67.371-97.092,7.774-195.422c-2.449-4.036-1.161-9.276,2.876-11.725c4.019-2.458,9.276-1.152,11.716,2.876
		c65.502,108.083-7.714,213.12-8.465,214.17C269.815,305.992,267.196,307.237,264.533,307.237"/>
	<path style="fill:#1F894A;" d="M280.75,277.287c-2.15,0-4.309-0.811-5.973-2.441c-3.362-3.294-3.422-8.695-0.119-12.066
		c12.442-12.698,27.162-17.169,45.79-22.827l1.527-0.469c4.506-1.382,9.276,1.178,10.65,5.683c1.365,4.506-1.178,9.276-5.683,10.641
		l-1.536,0.469c-16.93,5.146-29.175,8.858-38.562,18.449C285.179,276.425,282.96,277.287,280.75,277.287"/>
</g>
<path style="fill:#805333;" d="M25.6,494.975l47.915-75.29c7.356-11.571,20.122-18.577,33.843-18.577
	c12.954,0,25.114-6.255,32.64-16.802l23.91-33.468c4.241-5.939,11.093-9.463,18.389-9.463h31.036l18.773-31.292
	c4.233-7.057,11.861-11.375,20.096-11.375h19.362c12.271,0,24.422,2.338,35.806,6.895l9.557,3.823
	c10.487,4.19,21.675,6.349,32.964,6.349h16.623c10.812,0,20.796,5.794,26.155,15.181l93.73,164.019H25.6z"/>
<g>
	<path style="fill:#5B3922;" d="M349.867,392.575c-4.71,0-8.533-3.823-8.533-8.533c0-28.237,22.963-51.2,51.2-51.2
		c4.71,0,8.533,3.823,8.533,8.533s-3.823,8.533-8.533,8.533c-18.825,0-34.133,15.309-34.133,34.133
		C358.4,388.752,354.577,392.575,349.867,392.575"/>
	<path style="fill:#5B3922;" d="M247.467,384.042c-4.71,0-8.533-3.823-8.533-8.533c0-14.114-11.486-25.6-25.6-25.6
		c-4.71,0-8.533-3.823-8.533-8.533s3.823-8.533,8.533-8.533c23.526,0,42.667,19.14,42.667,42.667
		C256,380.219,252.177,384.042,247.467,384.042"/>
	<path style="fill:#5B3922;" d="M145.067,443.775c-4.71,0-8.533-3.823-8.533-8.533c0-14.114-11.486-25.6-25.6-25.6
		c-4.71,0-8.533-3.823-8.533-8.533s3.823-8.533,8.533-8.533c23.526,0,42.667,19.14,42.667,42.667
		C153.6,439.952,149.777,443.775,145.067,443.775"/>
</g>
<path style="fill:#1F894A;" d="M503.467,503.508H8.533c-4.71,0-8.533-3.823-8.533-8.533s3.823-8.533,8.533-8.533h494.933
	c4.71,0,8.533,3.823,8.533,8.533C512,499.685,508.177,503.508,503.467,503.508"/>
<path style="fill:#136635;" d="M170.667,8.583c8.431,0,102.4-6.323,102.4,85.333C163.465,95.247,170.667,19.522,170.667,8.583"/>
<path style="fill:#1F894A;" d="M273.071,102.45c-2.458,0-4.89-1.058-6.579-3.098c-14.49-17.527-29.961-30.421-48.7-40.602
	c-4.139-2.253-5.675-7.433-3.422-11.58c2.244-4.139,7.424-5.658,11.571-3.422c20.719,11.255,37.777,25.472,53.7,44.732
	c3.004,3.635,2.492,9.011-1.135,12.015C276.911,101.81,274.991,102.45,273.071,102.45"/>
<g>
	<path style="fill:#136635;" d="M204.703,170.982c6.229-1.519,75.29-21.905,91.213,48.179
		C215.165,239.889,206.606,179.353,204.703,170.982"/>
	<path style="fill:#136635;" d="M418.036,221.916c-5.82-2.662-63.94-39.885-93.867,25.6
		C399.408,283.049,414.461,229.733,418.036,221.916"/>
</g>
<g>
	<path style="fill:#1F894A;" d="M324.179,256.05c-3.115,0-6.118-1.715-7.629-4.685c-2.125-4.207-0.435-9.335,3.772-11.469
		c13.833-6.989,27.332-11.511,41.276-13.824c4.634-0.802,9.037,2.372,9.813,7.023c0.768,4.642-2.372,9.037-7.023,9.805
		c-12.373,2.057-23.936,5.948-36.369,12.237C326.79,255.752,325.467,256.05,324.179,256.05"/>
	<path style="fill:#1F894A;" d="M295.909,227.696c-1.545,0-3.106-0.418-4.506-1.289c-3.157-1.971-6.153-3.883-9.037-5.726
		c-7.859-5.026-14.66-9.37-21.751-12.937c-4.207-2.116-5.905-7.253-3.789-11.46s7.245-5.905,11.46-3.789
		c7.876,3.968,15.351,8.738,23.27,13.798c2.833,1.818,5.777,3.695,8.875,5.623c4.002,2.5,5.222,7.765,2.731,11.759
		C301.541,226.271,298.75,227.696,295.909,227.696"/>
</g>
<path style="fill:#136635;" d="M418.103,93.916c-8.209-1.929-100.113-22.665-121.088,66.56
	C403.401,186.861,415.603,104.566,418.103,93.916"/>
<path style="fill:#1F894A;" d="M297.021,169.008c-2.893,0-5.717-1.468-7.313-4.13c-2.441-4.036-1.135-9.276,2.901-11.708
	c6.562-3.959,12.723-8.013,18.705-11.955c17.169-11.298,33.382-21.965,53.726-27.017c4.531-1.126,9.19,1.647,10.334,6.229
	c1.135,4.574-1.655,9.199-6.229,10.342c-17.502,4.343-31.846,13.773-48.452,24.704c-6.161,4.053-12.51,8.226-19.277,12.305
	C300.041,168.616,298.522,169.008,297.021,169.008"/>
<g>
</g>
<g>
</g>
<g>
</g>
<g>
</g>
<g>
</g>
<g>
</g>
<g>
</g>
<g>
</g>
<g>
</g>
<g>
</g>
<g>
</g>
<g>
</g>
<g>
</g>
<g>
</g>
<g>
</g>
</svg>
